<?xml version="1.0" encoding="UTF-8" standalone="no"?>
<!-- Created with Inkscape (http://www.inkscape.org/) -->

<svg
   xmlns:dc="http://purl.org/dc/elements/1.1/"
   xmlns:cc="http://creativecommons.org/ns#"
   xmlns:rdf="http://www.w3.org/1999/02/22-rdf-syntax-ns#"
   xmlns:svg="http://www.w3.org/2000/svg"
   xmlns="http://www.w3.org/2000/svg"
   xmlns:sodipodi="http://sodipodi.sourceforge.net/DTD/sodipodi-0.dtd"
   xmlns:inkscape="http://www.inkscape.org/namespaces/inkscape"
   width="200"
   height="200"
   id="svg5116"
   version="1.1"
   inkscape:version="0.47 r22583"
   sodipodi:docname="New document 22">
  <defs
     id="defs5118">
    <inkscape:perspective
       sodipodi:type="inkscape:persp3d"
       inkscape:vp_x="0 : 526.18109 : 1"
       inkscape:vp_y="0 : 1000 : 0"
       inkscape:vp_z="744.09448 : 526.18109 : 1"
       inkscape:persp3d-origin="372.04724 : 350.78739 : 1"
       id="perspective5124" />
    <inkscape:perspective
       id="perspective5111"
       inkscape:persp3d-origin="0.5 : 0.33333333 : 1"
       inkscape:vp_z="1 : 0.5 : 1"
       inkscape:vp_y="0 : 1000 : 0"
       inkscape:vp_x="0 : 0.5 : 1"
       sodipodi:type="inkscape:persp3d" />
    <filter
       inkscape:collect="always"
       id="filter5664"
       color-interpolation-filters="sRGB">
      <feGaussianBlur
         inkscape:collect="always"
         stdDeviation="1.8304688"
         id="feGaussianBlur5666" />
    </filter>
  </defs>
  <sodipodi:namedview
     id="base"
     pagecolor="#ffffff"
     bordercolor="#666666"
     borderopacity="1.0"
     inkscape:pageopacity="0.0"
     inkscape:pageshadow="2"
     inkscape:zoom="2.0223254"
     inkscape:cx="90.51697"
     inkscape:cy="90.870831"
     inkscape:document-units="px"
     inkscape:current-layer="layer1"
     showgrid="false"
     inkscape:window-width="1549"
     inkscape:window-height="1134"
     inkscape:window-x="0"
     inkscape:window-y="24"
     inkscape:window-maximized="0">
    <inkscape:grid
       type="xygrid"
       id="grid5645"
       empspacing="5"
       visible="true"
       enabled="true"
       snapvisiblegridlinesonly="true" />
  </sodipodi:namedview>
  <metadata
     id="metadata5121">
    <rdf:RDF>
      <cc:Work
         rdf:about="">
        <dc:format>image/svg+xml</dc:format>
        <dc:type
           rdf:resource="http://purl.org/dc/dcmitype/StillImage" />
        <dc:title></dc:title>
      </cc:Work>
    </rdf:RDF>
  </metadata>
  <g
     inkscape:label="Layer 1"
     inkscape:groupmode="layer"
     id="layer1"
     transform="translate(-30.544375,-21.83063)">
    <path
       style="fill:#000000;fill-opacity:1;stroke:#000000;stroke-width:0.12340847;stroke-linecap:round;stroke-linejoin:round;stroke-miterlimit:4;stroke-opacity:1;stroke-dasharray:0.24681694, 0.12340847;stroke-dashoffset:0"
       d="m 131.25912,38.419833 c -44.983323,0 -81.449709,32.046202 -81.449709,71.577067 0,29.99654 20.995744,55.68661 50.778719,66.33189 l 1.05242,12.64976 -40.724722,0 C 38.377256,187.85682 40.587861,178.6214 39.936257,169.23288 l -4.936257,0 0,19.74567 0,28.38363 69.00453,0 2.57228,0 4.8323,0 -3.22414,-38.69983 -0.47488,-5.68066 -0.31316,-3.74881 -0.004,-0.0385 c -22.228746,-9.70323 -37.839926,-32.55445 -37.839926,-59.19761 0,-35.441552 27.625891,-64.172488 61.704166,-64.172488 34.07816,0 61.7043,28.730936 61.7043,64.172488 0,26.64316 -15.61143,49.49438 -37.84018,59.19761 l -0.004,0.0385 -0.78547,9.42947 -3.22414,38.69983 4.8323,0 2.57228,0 69.00453,0 0,-28.38363 0,-19.74567 -4.93626,0 c -0.65071,9.38852 1.55836,18.62304 -20.97931,19.74567 l -40.72499,0 1.05243,-12.64976 c 29.78297,-10.64528 50.77872,-36.33535 50.77872,-66.33189 0,-39.530865 -36.46639,-71.577067 -81.44959,-71.577067 z"
       id="path4189-4" />
    <path
       style="fill:#fefefe;fill-opacity:1;stroke:#000000;stroke-width:0.12340847;stroke-linecap:round;stroke-linejoin:round;stroke-miterlimit:4;stroke-opacity:1;stroke-dasharray:0.24681694, 0.12340847;stroke-dashoffset:0;filter:url(#filter5664)"
       d="m 133.25,43.8125 c -16.96912,0 -32.31356,7.158593 -43.46875,18.6875 10.95787,-10.357877 25.49456,-16.6875 41.46875,-16.6875 34.07816,0 61.71875,28.745948 61.71875,64.1875 0,17.48457 -6.72038,33.33202 -17.625,44.90625 12.06473,-11.71317 19.625,-28.38693 19.625,-46.90625 0,-35.441552 -27.64059,-64.1875 -61.71875,-64.1875 z M 70.40625,62.46875 C 57.608104,75.112275 49.8125,91.746958 49.8125,110 c 0,29.99654 20.998275,55.69847 50.78125,66.34375 l 0.875,10.625 2.15625,0 -1.03125,-12.625 C 72.810775,163.69847 51.8125,137.99654 51.8125,108 c 0,-17.294753 6.974455,-33.158508 18.59375,-45.53125 z m 122.6875,94.09375 c -8.0534,7.65705 -17.98764,13.78927 -29.15625,17.78125 l -0.0937,1.28125 c 11.33047,-4.3514 21.30748,-10.92505 29.25,-19.0625 z m -36.0625,11.75 c -0.63181,0.30251 -1.26315,0.59427 -1.90625,0.875 l 0,0.0312 -0.78125,9.4375 -3.25,38.71875 4.84375,0 2.5625,0 69.03125,0 0,-2 -67.03125,0 -2.5625,0 -4.84375,0 3.25,-38.71875 0.6875,-8.34375 z M 35,169.21875 l 0,19.75 0,28.40625 69,0 2.5625,0 4.84375,0 -0.15625,-2 -2.6875,0 -2.5625,0 -69,0 0,-28.40625 0,-17.75 -2,0 z m 187.59375,0 c -0.34292,4.94766 0.0761,9.86506 -2.71875,13.5625 4.43872,-3.37131 4.41154,-8.36559 4.625,-13.5625 l -1.90625,0 z"
       id="path5649" />
  </g>
</svg>
